<mxfile host="drawio-plugin" modified="2023-10-24T02:29:58.538Z" agent="5.0 (Windows NT 6.2; Win64; x64) AppleWebKit/537.36 (KHTML, like Gecko) Chrome/104.0.5112.102 Safari/537.36" etag="UymR8zvsCAOtL8BlJi0z" version="20.5.3" type="embed"><diagram id="FVe-dMKoKEPLYO1Fyh8D" name="Page-1"><mxGraphModel dx="800" dy="297" grid="1" gridSize="10" guides="1" tooltips="1" connect="1" arrows="1" fold="1" page="1" pageScale="1" pageWidth="850" pageHeight="1100" math="0" shadow="0"><root><mxCell id="0"/><mxCell id="1" parent="0"/><mxCell id="8" style="edgeStyle=orthogonalEdgeStyle;rounded=0;orthogonalLoop=1;jettySize=auto;html=1;exitX=1;exitY=0.5;exitDx=0;exitDy=0;entryX=0;entryY=0.5;entryDx=0;entryDy=0;" parent="1" source="2" target="7" edge="1"><mxGeometry relative="1" as="geometry"/></mxCell><mxCell id="2" value="nginx" style="rounded=0;whiteSpace=wrap;html=1;" parent="1" vertex="1"><mxGeometry x="230" y="220" width="120" height="60" as="geometry"/></mxCell><mxCell id="10" style="edgeStyle=orthogonalEdgeStyle;rounded=0;orthogonalLoop=1;jettySize=auto;html=1;entryX=0;entryY=0.5;entryDx=0;entryDy=0;entryPerimeter=0;" parent="1" source="7" target="16" edge="1"><mxGeometry relative="1" as="geometry"><mxPoint x="600" y="250" as="targetPoint"/><Array as="points"><mxPoint x="630" y="250"/></Array></mxGeometry></mxCell><mxCell id="7" value="vue" style="rounded=0;whiteSpace=wrap;html=1;" parent="1" vertex="1"><mxGeometry x="420" y="220" width="120" height="60" as="geometry"/></mxCell><mxCell id="11" value="http" style="text;html=1;strokeColor=none;fillColor=none;align=center;verticalAlign=middle;whiteSpace=wrap;rounded=0;" parent="1" vertex="1"><mxGeometry x="530" y="220" width="60" height="30" as="geometry"/></mxCell><mxCell id="15" style="edgeStyle=orthogonalEdgeStyle;rounded=0;orthogonalLoop=1;jettySize=auto;html=1;exitX=1;exitY=0.3333333333333333;exitDx=0;exitDy=0;exitPerimeter=0;entryX=0;entryY=0.5;entryDx=0;entryDy=0;" parent="1" source="12" target="2" edge="1"><mxGeometry relative="1" as="geometry"/></mxCell><mxCell id="12" value="Actor" style="shape=umlActor;verticalLabelPosition=bottom;verticalAlign=top;html=1;outlineConnect=0;" parent="1" vertex="1"><mxGeometry x="100" y="220" width="30" height="60" as="geometry"/></mxCell><mxCell id="13" value="get Req" style="text;html=1;strokeColor=none;fillColor=none;align=center;verticalAlign=middle;whiteSpace=wrap;rounded=0;" parent="1" vertex="1"><mxGeometry x="160" y="210" width="60" height="30" as="geometry"/></mxCell><mxCell id="18" value="" style="edgeStyle=orthogonalEdgeStyle;rounded=0;orthogonalLoop=1;jettySize=auto;html=1;" parent="1" source="16" target="17" edge="1"><mxGeometry relative="1" as="geometry"/></mxCell><mxCell id="20" value="" style="edgeStyle=orthogonalEdgeStyle;rounded=0;orthogonalLoop=1;jettySize=auto;html=1;" parent="1" source="16" target="19" edge="1"><mxGeometry relative="1" as="geometry"/></mxCell><mxCell id="16" value="api-services" style="strokeWidth=2;html=1;shape=mxgraph.flowchart.multi-document;whiteSpace=wrap;" parent="1" vertex="1"><mxGeometry x="670" y="220" width="90" height="60" as="geometry"/></mxCell><mxCell id="17" value="日志系统" style="whiteSpace=wrap;html=1;strokeWidth=2;" parent="1" vertex="1"><mxGeometry x="655" y="350" width="120" height="60" as="geometry"/></mxCell><mxCell id="22" value="" style="edgeStyle=orthogonalEdgeStyle;rounded=0;orthogonalLoop=1;jettySize=auto;html=1;" parent="1" source="19" target="21" edge="1"><mxGeometry relative="1" as="geometry"/></mxCell><mxCell id="19" value="rabbitMQ" style="whiteSpace=wrap;html=1;strokeWidth=2;" parent="1" vertex="1"><mxGeometry x="655" y="80" width="120" height="60" as="geometry"/></mxCell><mxCell id="21" value="mysql" style="whiteSpace=wrap;html=1;strokeWidth=2;" parent="1" vertex="1"><mxGeometry x="990" y="80" width="120" height="60" as="geometry"/></mxCell><mxCell id="24" value="需高并发任务" style="text;html=1;strokeColor=none;fillColor=none;align=center;verticalAlign=middle;whiteSpace=wrap;rounded=0;" parent="1" vertex="1"><mxGeometry x="655" y="170" width="60" height="30" as="geometry"/></mxCell><mxCell id="32" style="edgeStyle=orthogonalEdgeStyle;rounded=0;orthogonalLoop=1;jettySize=auto;html=1;entryX=0.75;entryY=1;entryDx=0;entryDy=0;" parent="1" source="25" target="21" edge="1"><mxGeometry relative="1" as="geometry"><mxPoint x="940" y="180" as="targetPoint"/></mxGeometry></mxCell><mxCell id="25" value="缓存" style="rounded=0;whiteSpace=wrap;html=1;" parent="1" vertex="1"><mxGeometry x="1020" y="290" width="120" height="60" as="geometry"/></mxCell><mxCell id="34" value="" style="endArrow=classic;startArrow=classic;html=1;rounded=0;exitX=0.96;exitY=0.783;exitDx=0;exitDy=0;exitPerimeter=0;entryX=0;entryY=1;entryDx=0;entryDy=0;" parent="1" source="16" target="25" edge="1"><mxGeometry width="50" height="50" relative="1" as="geometry"><mxPoint x="850" y="300" as="sourcePoint"/><mxPoint x="900" y="250" as="targetPoint"/></mxGeometry></mxCell><mxCell id="36" value="异步" style="text;html=1;strokeColor=none;fillColor=none;align=center;verticalAlign=middle;whiteSpace=wrap;rounded=0;" parent="1" vertex="1"><mxGeometry x="860" y="80" width="60" height="30" as="geometry"/></mxCell><mxCell id="38" value="" style="endArrow=classic;startArrow=classic;html=1;rounded=0;exitX=1;exitY=0.5;exitDx=0;exitDy=0;exitPerimeter=0;entryX=0.412;entryY=1.013;entryDx=0;entryDy=0;entryPerimeter=0;" parent="1" source="16" target="21" edge="1"><mxGeometry width="50" height="50" relative="1" as="geometry"><mxPoint x="850" y="290" as="sourcePoint"/><mxPoint x="900" y="240" as="targetPoint"/></mxGeometry></mxCell><mxCell id="39" value="oss" style="rounded=1;whiteSpace=wrap;html=1;" parent="1" vertex="1"><mxGeometry x="910" y="390" width="120" height="60" as="geometry"/></mxCell><mxCell id="40" value="" style="endArrow=classic;startArrow=classic;html=1;rounded=0;exitX=0.885;exitY=0.91;exitDx=0;exitDy=0;exitPerimeter=0;entryX=0;entryY=0;entryDx=0;entryDy=0;" parent="1" source="16" target="39" edge="1"><mxGeometry width="50" height="50" relative="1" as="geometry"><mxPoint x="850" y="340" as="sourcePoint"/><mxPoint x="900" y="290" as="targetPoint"/></mxGeometry></mxCell></root></mxGraphModel></diagram></mxfile>